<mxfile host="65bd71144e">
    <diagram id="5OWV4PbIZp0t7cs6TkMt" name="Page-1">
        <mxGraphModel dx="797" dy="815" grid="1" gridSize="10" guides="1" tooltips="1" connect="1" arrows="1" fold="1" page="1" pageScale="1" pageWidth="1169" pageHeight="827" background="#ffffff" math="0" shadow="0">
            <root>
                <mxCell id="0"/>
                <mxCell id="1" parent="0"/>
                <mxCell id="66" style="edgeStyle=orthogonalEdgeStyle;rounded=0;jumpSize=6;html=1;strokeColor=#000000;strokeWidth=1;fontSize=11;fontColor=#000000;startArrow=open;startFill=0;endArrow=diamondThin;endFill=0;startSize=14;endSize=12;targetPerimeterSpacing=0;entryX=0.25;entryY=0;entryDx=0;entryDy=0;exitX=0.717;exitY=1.015;exitDx=0;exitDy=0;exitPerimeter=0;" edge="1" parent="1" source="13" target="45">
                    <mxGeometry relative="1" as="geometry"/>
                </mxCell>
                <mxCell id="13" value="&lt;table border=&quot;1&quot; width=&quot;100%&quot; height=&quot;100%&quot; cellpadding=&quot;4&quot; style=&quot;width:100%;height:100%;border-collapse:collapse;&quot;&gt;&lt;tbody&gt;&lt;tr&gt;&lt;th style=&quot;background-color: rgb(153, 153, 255);&quot; align=&quot;center&quot;&gt;Cliente&lt;/th&gt;&lt;/tr&gt;&lt;tr&gt;&lt;td&gt;- id: int&lt;br&gt;- nombre: string&lt;br&gt;- email: string&lt;/td&gt;&lt;/tr&gt;&lt;tr&gt;&lt;td&gt;+ obtenerNombre(): string&lt;br&gt;+ obtenerId(): string&lt;/td&gt;&lt;/tr&gt;&lt;/tbody&gt;&lt;/table&gt;" style="text;html=1;whiteSpace=wrap;strokeColor=#666666;fillColor=#f5f5f5;overflow=fill;fontColor=#333333;labelBackgroundColor=none;labelBorderColor=none;" parent="1" vertex="1">
                    <mxGeometry x="62" y="60" width="200" height="140" as="geometry"/>
                </mxCell>
                <mxCell id="14" value="&lt;table border=&quot;1&quot; width=&quot;100%&quot; height=&quot;100%&quot; cellpadding=&quot;4&quot; style=&quot;width:100%;height:100%;border-collapse:collapse;&quot;&gt;&lt;tbody&gt;&lt;tr&gt;&lt;th style=&quot;background-color: rgb(204, 204, 255);&quot; align=&quot;center&quot;&gt;Empleado&lt;/th&gt;&lt;/tr&gt;&lt;tr&gt;&lt;td&gt;- id: int&lt;br&gt;- nombre: string&lt;br&gt;- puesto: string&lt;/td&gt;&lt;/tr&gt;&lt;tr&gt;&lt;td&gt;+ obtenerNombre(): string&lt;br&gt;+ obtenerId(): string&lt;br&gt;+ obtenerPuesto: string&lt;/td&gt;&lt;/tr&gt;&lt;/tbody&gt;&lt;/table&gt;" style="text;html=1;whiteSpace=wrap;strokeColor=#666666;fillColor=#f5f5f5;overflow=fill;fontColor=#333333;labelBackgroundColor=none;labelBorderColor=none;" parent="1" vertex="1">
                    <mxGeometry x="350" y="60" width="200" height="140" as="geometry"/>
                </mxCell>
                <mxCell id="15" value="&lt;table border=&quot;1&quot; width=&quot;100%&quot; height=&quot;100%&quot; cellpadding=&quot;4&quot; style=&quot;width:100%;height:100%;border-collapse:collapse;&quot;&gt;&lt;tbody&gt;&lt;tr&gt;&lt;th style=&quot;background-color: rgb(255, 153, 51);&quot; align=&quot;center&quot;&gt;Producto&lt;/th&gt;&lt;/tr&gt;&lt;tr&gt;&lt;td&gt;# precio: double&lt;br&gt;# peso: double&lt;br&gt;&lt;/td&gt;&lt;/tr&gt;&lt;tr&gt;&lt;td&gt;+ obtenerPrecio(): double&lt;br&gt;+ obtenerPeso(): double&lt;br&gt;+ calcularPrecioTotal(int cantidad): double&lt;br&gt;&lt;span class=&quot;hljs-operator&quot;&gt;+&lt;/span&gt;&amp;nbsp;obtenerNombre(): string (FunciÃ³n virtual pura)&lt;br&gt;&lt;/td&gt;&lt;/tr&gt;&lt;/tbody&gt;&lt;/table&gt;" style="text;html=1;whiteSpace=wrap;strokeColor=#666666;fillColor=#f5f5f5;overflow=fill;labelBackgroundColor=none;labelBorderColor=none;fillStyle=auto;shadow=0;rounded=0;glass=0;fontColor=#333333;" vertex="1" parent="1">
                    <mxGeometry x="641" y="321" width="290" height="140" as="geometry"/>
                </mxCell>
                <mxCell id="41" style="edgeStyle=none;html=1;exitX=0.5;exitY=0;exitDx=0;exitDy=0;entryX=0.5;entryY=1;entryDx=0;entryDy=0;strokeColor=#000000;fontColor=#000000;endArrow=block;endFill=0;" edge="1" parent="1" source="17" target="31">
                    <mxGeometry relative="1" as="geometry"/>
                </mxCell>
                <mxCell id="17" value="&lt;font color=&quot;#000000&quot;&gt;MatambreCerdo&lt;/font&gt;" style="swimlane;fontStyle=0;childLayout=stackLayout;horizontal=1;startSize=26;fillColor=#ffe6cc;horizontalStack=0;resizeParent=1;resizeParentMax=0;resizeLast=0;collapsible=1;marginBottom=0;html=1;strokeColor=#d79b00;" vertex="1" parent="1">
                    <mxGeometry x="956" y="698" width="140" height="52" as="geometry"/>
                </mxCell>
                <mxCell id="40" style="edgeStyle=none;html=1;exitX=0.5;exitY=0;exitDx=0;exitDy=0;strokeColor=#000000;fontColor=#000000;endArrow=block;endFill=0;" edge="1" parent="1" source="21" target="30">
                    <mxGeometry relative="1" as="geometry"/>
                </mxCell>
                <mxCell id="21" value="&lt;font color=&quot;#000000&quot;&gt;MilanesaCarne&lt;/font&gt;" style="swimlane;fontStyle=0;childLayout=stackLayout;horizontal=1;startSize=26;fillColor=#ffe6cc;horizontalStack=0;resizeParent=1;resizeParentMax=0;resizeLast=0;collapsible=1;marginBottom=0;html=1;strokeColor=#d79b00;" vertex="1" parent="1">
                    <mxGeometry x="781" y="698" width="140" height="52" as="geometry"/>
                </mxCell>
                <mxCell id="39" style="edgeStyle=none;html=1;exitX=0.5;exitY=0;exitDx=0;exitDy=0;strokeColor=#000000;fontColor=#000000;endArrow=block;endFill=0;" edge="1" parent="1" source="22" target="30">
                    <mxGeometry relative="1" as="geometry"/>
                </mxCell>
                <mxCell id="22" value="&lt;font color=&quot;#000000&quot;&gt;AsadoVaca&lt;/font&gt;" style="swimlane;fontStyle=0;childLayout=stackLayout;horizontal=1;startSize=26;fillColor=#ffe6cc;horizontalStack=0;resizeParent=1;resizeParentMax=0;resizeLast=0;collapsible=1;marginBottom=0;html=1;strokeColor=#d79b00;" vertex="1" parent="1">
                    <mxGeometry x="621" y="698" width="140" height="52" as="geometry"/>
                </mxCell>
                <mxCell id="38" style="edgeStyle=none;html=1;exitX=0.5;exitY=0;exitDx=0;exitDy=0;entryX=0.5;entryY=1;entryDx=0;entryDy=0;strokeColor=#000000;fontColor=#000000;endArrow=block;endFill=0;" edge="1" parent="1" source="23" target="29">
                    <mxGeometry relative="1" as="geometry"/>
                </mxCell>
                <mxCell id="23" value="&lt;font color=&quot;#000000&quot;&gt;MilanesaPollo&lt;/font&gt;" style="swimlane;fontStyle=0;childLayout=stackLayout;horizontal=1;startSize=26;fillColor=#ffe6cc;horizontalStack=0;resizeParent=1;resizeParentMax=0;resizeLast=0;collapsible=1;marginBottom=0;html=1;strokeColor=#d79b00;" vertex="1" parent="1">
                    <mxGeometry x="456" y="698" width="140" height="52" as="geometry"/>
                </mxCell>
                <mxCell id="32" style="edgeStyle=none;html=1;entryX=0.25;entryY=1;entryDx=0;entryDy=0;strokeColor=#000000;fontColor=#000000;endArrow=block;endFill=0;" edge="1" parent="1" source="29" target="15">
                    <mxGeometry relative="1" as="geometry"/>
                </mxCell>
                <mxCell id="29" value="&lt;table border=&quot;1&quot; width=&quot;100%&quot; height=&quot;100%&quot; cellpadding=&quot;4&quot; style=&quot;width:100%;height:100%;border-collapse:collapse;&quot;&gt;&lt;tbody&gt;&lt;tr&gt;&lt;th style=&quot;background-color: rgb(255, 179, 102);&quot; align=&quot;center&quot;&gt;ProductoPollo&lt;/th&gt;&lt;/tr&gt;&lt;tr&gt;&lt;td&gt;+ nombre: string&lt;br&gt;&lt;/td&gt;&lt;/tr&gt;&lt;tr&gt;&lt;td&gt;- obtenerNombre(): string&lt;br&gt;&lt;/td&gt;&lt;/tr&gt;&lt;/tbody&gt;&lt;/table&gt;" style="text;html=1;whiteSpace=wrap;strokeColor=#666666;fillColor=#f5f5f5;overflow=fill;fontColor=#333333;labelBackgroundColor=none;labelBorderColor=none;" vertex="1" parent="1">
                    <mxGeometry x="411" y="541" width="230" height="100" as="geometry"/>
                </mxCell>
                <mxCell id="33" style="edgeStyle=none;html=1;strokeColor=#000000;fontColor=#000000;endArrow=block;endFill=0;entryX=0.473;entryY=0.998;entryDx=0;entryDy=0;entryPerimeter=0;" edge="1" parent="1" source="30" target="15">
                    <mxGeometry relative="1" as="geometry">
                        <mxPoint x="781" y="481" as="targetPoint"/>
                    </mxGeometry>
                </mxCell>
                <mxCell id="30" value="&lt;table border=&quot;1&quot; width=&quot;100%&quot; height=&quot;100%&quot; cellpadding=&quot;4&quot; style=&quot;width:100%;height:100%;border-collapse:collapse;&quot;&gt;&lt;tbody&gt;&lt;tr&gt;&lt;th style=&quot;background-color: rgb(255, 179, 102);&quot; align=&quot;center&quot;&gt;ProductoVacuno&lt;/th&gt;&lt;/tr&gt;&lt;tr&gt;&lt;td&gt;- nombre: string&lt;br&gt;&lt;/td&gt;&lt;/tr&gt;&lt;tr&gt;&lt;td&gt;+ obtenerNombre(): string&lt;br&gt;&lt;/td&gt;&lt;/tr&gt;&lt;/tbody&gt;&lt;/table&gt;" style="text;html=1;whiteSpace=wrap;strokeColor=#666666;fillColor=#f5f5f5;overflow=fill;fontColor=#333333;labelBackgroundColor=none;labelBorderColor=none;" vertex="1" parent="1">
                    <mxGeometry x="661" y="541" width="240" height="100" as="geometry"/>
                </mxCell>
                <mxCell id="34" style="edgeStyle=none;html=1;exitX=0.5;exitY=0;exitDx=0;exitDy=0;entryX=0.75;entryY=1;entryDx=0;entryDy=0;strokeColor=#000000;fontColor=#000000;endArrow=block;endFill=0;" edge="1" parent="1" source="31" target="15">
                    <mxGeometry relative="1" as="geometry"/>
                </mxCell>
                <mxCell id="31" value="&lt;table border=&quot;1&quot; width=&quot;100%&quot; height=&quot;100%&quot; cellpadding=&quot;4&quot; style=&quot;width:100%;height:100%;border-collapse:collapse;&quot;&gt;&lt;tbody&gt;&lt;tr&gt;&lt;th style=&quot;background-color: rgb(255, 179, 102);&quot; align=&quot;center&quot;&gt;ProductoCerdo&lt;/th&gt;&lt;/tr&gt;&lt;tr&gt;&lt;td&gt;+ nombre: string&lt;br&gt;&lt;/td&gt;&lt;/tr&gt;&lt;tr&gt;&lt;td&gt;- obtenerNombre(): string&lt;br&gt;&lt;/td&gt;&lt;/tr&gt;&lt;/tbody&gt;&lt;/table&gt;" style="text;html=1;whiteSpace=wrap;strokeColor=#666666;fillColor=#f5f5f5;overflow=fill;fontColor=#333333;labelBackgroundColor=none;labelBorderColor=none;" vertex="1" parent="1">
                    <mxGeometry x="911" y="541" width="230" height="100" as="geometry"/>
                </mxCell>
                <mxCell id="35" value="&amp;lt;&amp;lt;Extends&amp;gt;&amp;gt;" style="text;html=1;strokeColor=none;fillColor=none;align=center;verticalAlign=middle;whiteSpace=wrap;rounded=0;fontColor=#000000;" vertex="1" parent="1">
                    <mxGeometry x="951" y="481" width="60" height="30" as="geometry"/>
                </mxCell>
                <mxCell id="36" value="&amp;lt;&amp;lt;Extends&amp;gt;&amp;gt;" style="text;html=1;strokeColor=none;fillColor=none;align=center;verticalAlign=middle;whiteSpace=wrap;rounded=0;fontColor=#000000;" vertex="1" parent="1">
                    <mxGeometry x="801" y="491" width="60" height="30" as="geometry"/>
                </mxCell>
                <mxCell id="37" value="&amp;lt;&amp;lt;Extends&amp;gt;&amp;gt;" style="text;html=1;strokeColor=none;fillColor=none;align=center;verticalAlign=middle;whiteSpace=wrap;rounded=0;fontColor=#000000;" vertex="1" parent="1">
                    <mxGeometry x="581" y="491" width="60" height="30" as="geometry"/>
                </mxCell>
                <mxCell id="42" value="&amp;lt;&amp;lt;Extends&amp;gt;&amp;gt;" style="text;html=1;strokeColor=none;fillColor=none;align=center;verticalAlign=middle;whiteSpace=wrap;rounded=0;fontColor=#000000;" vertex="1" parent="1">
                    <mxGeometry x="536" y="655" width="60" height="30" as="geometry"/>
                </mxCell>
                <mxCell id="43" value="&amp;lt;&amp;lt;Extends&amp;gt;&amp;gt;" style="text;html=1;strokeColor=none;fillColor=none;align=center;verticalAlign=middle;whiteSpace=wrap;rounded=0;fontColor=#000000;" vertex="1" parent="1">
                    <mxGeometry x="741" y="655" width="60" height="30" as="geometry"/>
                </mxCell>
                <mxCell id="44" value="&amp;lt;&amp;lt;Extends&amp;gt;&amp;gt;" style="text;html=1;strokeColor=none;fillColor=none;align=center;verticalAlign=middle;whiteSpace=wrap;rounded=0;fontColor=#000000;" vertex="1" parent="1">
                    <mxGeometry x="951" y="655" width="60" height="30" as="geometry"/>
                </mxCell>
                <mxCell id="63" style="edgeStyle=orthogonalEdgeStyle;rounded=0;jumpSize=6;html=1;entryX=0.473;entryY=0.011;entryDx=0;entryDy=0;entryPerimeter=0;strokeColor=#000000;strokeWidth=1;fontSize=11;fontColor=#000000;startArrow=diamondThin;startFill=1;endArrow=open;endFill=0;startSize=14;endSize=12;targetPerimeterSpacing=0;exitX=0.25;exitY=1;exitDx=0;exitDy=0;" edge="1" parent="1" source="45" target="46">
                    <mxGeometry relative="1" as="geometry">
                        <mxPoint x="210" y="520" as="sourcePoint"/>
                    </mxGeometry>
                </mxCell>
                <mxCell id="45" value="&lt;table border=&quot;1&quot; width=&quot;100%&quot; height=&quot;100%&quot; cellpadding=&quot;4&quot; style=&quot;width:100%;height:100%;border-collapse:collapse;&quot;&gt;&lt;tbody&gt;&lt;tr&gt;&lt;th style=&quot;background-color: rgb(51, 153, 255);&quot; align=&quot;center&quot;&gt;Pedido&lt;/th&gt;&lt;/tr&gt;&lt;tr&gt;&lt;td&gt;&amp;nbsp;- id: int&lt;br&gt;&amp;nbsp;- Cliente* cliente&lt;br&gt;&amp;nbsp;- Empleado* empleado&lt;br&gt;&amp;nbsp;- std::vector&amp;lt;Item&amp;gt; items&lt;br&gt;&lt;/td&gt;&lt;/tr&gt;&lt;tr&gt;&lt;td&gt;+ Pedido(int id, Cliente* cliente, Empleado* empleado)&lt;br&gt;+ agregarItem(Producto* producto, int cantidad)&lt;br&gt;    + montoTotal() : double&lt;br&gt;+ mostrar() : void&lt;br&gt;+ obtenerItems() : std::vector&amp;lt;Item&amp;gt;&lt;br&gt;+ obtenerCliente() : Cliente*&lt;br&gt;    + obtenerId() : int&lt;br&gt;&lt;/td&gt;&lt;/tr&gt;&lt;/tbody&gt;&lt;/table&gt;" style="text;html=1;whiteSpace=wrap;strokeColor=#666666;fillColor=#f5f5f5;overflow=fill;fontColor=#333333;labelBackgroundColor=none;labelBorderColor=none;" vertex="1" parent="1">
                    <mxGeometry x="62" y="280" width="304.5" height="261" as="geometry"/>
                </mxCell>
                <mxCell id="59" style="edgeStyle=orthogonalEdgeStyle;rounded=0;jumpSize=6;html=1;entryX=0;entryY=0.5;entryDx=0;entryDy=0;strokeColor=#000000;strokeWidth=1;fontSize=11;fontColor=#000000;endArrow=open;endFill=0;targetPerimeterSpacing=0;endSize=12;startSize=14;startArrow=diamondThin;startFill=0;" edge="1" parent="1" source="46" target="15">
                    <mxGeometry relative="1" as="geometry">
                        <Array as="points">
                            <mxPoint x="380" y="680"/>
                            <mxPoint x="380" y="391"/>
                        </Array>
                    </mxGeometry>
                </mxCell>
                <mxCell id="46" value="&lt;table border=&quot;1&quot; width=&quot;100%&quot; height=&quot;100%&quot; cellpadding=&quot;4&quot; style=&quot;width:100%;height:100%;border-collapse:collapse;&quot;&gt;&lt;tbody&gt;&lt;tr&gt;&lt;th style=&quot;background-color: rgb(255, 153, 204);&quot; align=&quot;center&quot;&gt;Item&lt;/th&gt;&lt;/tr&gt;&lt;tr&gt;&lt;td&gt;- Producto* producto&lt;br&gt;- cantidad: int&lt;br&gt;&lt;/td&gt;&lt;/tr&gt;&lt;tr&gt;&lt;td&gt;+ obtenerProducto() : Producto*&lt;br&gt;    + obtenerCantidad() : int&lt;br&gt;    + obtenerPrecioTotal() : double&lt;br&gt;&lt;/td&gt;&lt;/tr&gt;&lt;/tbody&gt;&lt;/table&gt;" style="text;html=1;whiteSpace=wrap;strokeColor=#666666;fillColor=#f5f5f5;overflow=fill;fontColor=#333333;labelBackgroundColor=none;labelBorderColor=none;" vertex="1" parent="1">
                    <mxGeometry x="100.25" y="610" width="239.75" height="140" as="geometry"/>
                </mxCell>
                <mxCell id="53" value="" style="endArrow=open;html=1;endSize=12;startArrow=diamondThin;startSize=14;startFill=0;edgeStyle=orthogonalEdgeStyle;rounded=0;exitX=1.003;exitY=0.204;exitDx=0;exitDy=0;exitPerimeter=0;strokeColor=#000000;" edge="1" parent="1" source="45" target="14">
                    <mxGeometry x="-0.0909" y="-100" relative="1" as="geometry">
                        <mxPoint x="301" y="250" as="sourcePoint"/>
                        <mxPoint x="411" y="250" as="targetPoint"/>
                        <mxPoint as="offset"/>
                    </mxGeometry>
                </mxCell>
                <mxCell id="56" value="&lt;p style=&quot;line-height: 100%;&quot;&gt;&lt;font style=&quot;font-size: 16px;&quot;&gt;*&lt;/font&gt;&lt;/p&gt;" style="text;html=1;strokeColor=none;fillColor=none;align=center;verticalAlign=middle;whiteSpace=wrap;rounded=0;shadow=0;glass=0;labelBackgroundColor=none;sketch=0;fillStyle=auto;fontColor=#000000;strokeWidth=2;" vertex="1" parent="1">
                    <mxGeometry x="380" y="290" width="20" height="20" as="geometry"/>
                </mxCell>
                <mxCell id="58" value="&lt;p style=&quot;line-height: 100%;&quot;&gt;&lt;font style=&quot;font-size: 11px;&quot;&gt;1&lt;/font&gt;&lt;/p&gt;" style="text;html=1;strokeColor=none;fillColor=none;align=center;verticalAlign=middle;whiteSpace=wrap;rounded=0;shadow=0;glass=0;labelBackgroundColor=none;sketch=0;fillStyle=auto;fontColor=#000000;strokeWidth=2;" vertex="1" parent="1">
                    <mxGeometry x="411" y="210" width="20" height="20" as="geometry"/>
                </mxCell>
                <mxCell id="60" value="&lt;p style=&quot;line-height: 100%;&quot;&gt;&lt;font style=&quot;font-size: 11px;&quot;&gt;1&lt;/font&gt;&lt;/p&gt;" style="text;html=1;strokeColor=none;fillColor=none;align=center;verticalAlign=middle;whiteSpace=wrap;rounded=0;shadow=0;glass=0;labelBackgroundColor=none;sketch=0;fillStyle=auto;fontColor=#000000;strokeWidth=2;" vertex="1" parent="1">
                    <mxGeometry x="346.5" y="641" width="20" height="20" as="geometry"/>
                </mxCell>
                <mxCell id="61" value="&lt;p style=&quot;line-height: 100%;&quot;&gt;&lt;font style=&quot;font-size: 16px;&quot;&gt;*&lt;/font&gt;&lt;/p&gt;" style="text;html=1;strokeColor=none;fillColor=none;align=center;verticalAlign=middle;whiteSpace=wrap;rounded=0;shadow=0;glass=0;labelBackgroundColor=none;sketch=0;fillStyle=auto;fontColor=#000000;strokeWidth=2;" vertex="1" parent="1">
                    <mxGeometry x="610" y="360" width="20" height="20" as="geometry"/>
                </mxCell>
                <mxCell id="64" value="&lt;p style=&quot;line-height: 100%;&quot;&gt;&lt;font style=&quot;font-size: 11px;&quot;&gt;1&lt;/font&gt;&lt;/p&gt;" style="text;html=1;strokeColor=none;fillColor=none;align=center;verticalAlign=middle;whiteSpace=wrap;rounded=0;shadow=0;glass=0;labelBackgroundColor=none;sketch=0;fillStyle=auto;fontColor=#000000;strokeWidth=2;" vertex="1" parent="1">
                    <mxGeometry x="110" y="550" width="20" height="20" as="geometry"/>
                </mxCell>
                <mxCell id="65" value="&lt;p style=&quot;line-height: 100%;&quot;&gt;&lt;font style=&quot;font-size: 16px;&quot;&gt;*&lt;/font&gt;&lt;/p&gt;" style="text;html=1;strokeColor=none;fillColor=none;align=center;verticalAlign=middle;whiteSpace=wrap;rounded=0;shadow=0;glass=0;labelBackgroundColor=none;sketch=0;fillStyle=auto;fontColor=#000000;strokeWidth=2;" vertex="1" parent="1">
                    <mxGeometry x="230" y="590" width="20" height="20" as="geometry"/>
                </mxCell>
                <mxCell id="67" value="&lt;p style=&quot;line-height: 100%;&quot;&gt;&lt;font style=&quot;font-size: 16px;&quot;&gt;*&lt;/font&gt;&lt;/p&gt;" style="text;html=1;strokeColor=none;fillColor=none;align=center;verticalAlign=middle;whiteSpace=wrap;rounded=0;shadow=0;glass=0;labelBackgroundColor=none;sketch=0;fillStyle=auto;fontColor=#000000;strokeWidth=2;" vertex="1" parent="1">
                    <mxGeometry x="110" y="250" width="20" height="20" as="geometry"/>
                </mxCell>
                <mxCell id="68" value="&lt;p style=&quot;line-height: 100%;&quot;&gt;&lt;font style=&quot;font-size: 11px;&quot;&gt;1&lt;/font&gt;&lt;/p&gt;" style="text;html=1;strokeColor=none;fillColor=none;align=center;verticalAlign=middle;whiteSpace=wrap;rounded=0;shadow=0;glass=0;labelBackgroundColor=none;sketch=0;fillStyle=auto;fontColor=#000000;strokeWidth=2;" vertex="1" parent="1">
                    <mxGeometry x="220" y="210" width="20" height="20" as="geometry"/>
                </mxCell>
            </root>
        </mxGraphModel>
    </diagram>
</mxfile>